<?xml version="1.0" encoding="utf-8"?>
<!-- Generator: Adobe Illustrator 17.0.0, SVG Export Plug-In . SVG Version: 6.00 Build 0)  -->
<!DOCTYPE svg PUBLIC "-//W3C//DTD SVG 1.1//EN" "http://www.w3.org/Graphics/SVG/1.1/DTD/svg11.dtd">
<svg version="1.1" id="Layer_1" xmlns="http://www.w3.org/2000/svg" xmlns:xlink="http://www.w3.org/1999/xlink" x="0px" y="0px"
	 width="328.957px" height="79.166px" viewBox="0 0 328.957 79.166" enable-background="new 0 0 328.957 79.166"
	 xml:space="preserve">
<g id="XMLID_2734_">
	<g id="XMLID_2957_">
		<path id="XMLID_3313_" fill="#EC1C24" d="M253.062,19.81l0.011-0.003l0.001-0.001L253.062,19.81L253.062,19.81z M281.397,27.048
			L281.397,27.048c-0.399-1.717-1.122-3.16-2.206-4.412l-0.008-0.009c-1.483-1.661-3.372-2.764-5.777-3.373
			c-2.226-0.587-5.503-0.875-10.009-0.875c-4.915,0-8.077,0.575-10.324,1.428c-1.003,0.363-2.086,1.145-2.89,1.898v-1.649h-6.358
			v33.271h6.386V32.194c0-5.518,5.641-7.696,11.26-7.696h2.819c5.622,0,11.316,2.178,11.316,7.696v21.133h6.302V35.18
			C281.908,31.06,281.75,28.551,281.397,27.048L281.397,27.048z"/>
		<path id="XMLID_3312_" fill="#EC1C24" d="M173.923,18.281h6.356c0.074-3.406,0.188-6.652,0.557-8.131
			c0.296-1.475,0.961-2.73,1.921-3.69c1.108-1.326,2.658-2.288,4.653-2.952c1.921-0.517,5.186-0.961,9.471-1.033l5.971-0.008
			l-5.745,5.603c-0.205,0-2.235,0.009-2.431,0.009c-8.453,0-7.861,5.408-7.861,10.201h14.865l-6.01,6.115h-9.002l0.034,28.878
			h-6.422V24.396h-6.356V18.281L173.923,18.281z"/>
		<polygon id="XMLID_3311_" fill="#EC1C24" points="167.568,7.339 167.568,13.859 173.928,13.859 173.928,7.339 167.568,7.339 		"/>
		<path id="XMLID_3295_" fill="#FFFFFF" d="M118.47,35.878c0,3.954-0.463,7.208-1.379,9.641c-0.925,2.533-4.089,8.25-19.448,8.25
			s-18.522-5.717-19.448-8.25c-0.916-2.432-1.379-5.686-1.379-9.641c0-3.956,0.463-7.207,1.379-9.641
			c0.925-2.534,4.089-8.249,19.448-8.249s18.523,5.715,19.448,8.249C118.007,28.671,118.47,31.922,118.47,35.878L118.47,35.878z
			 M110.431,28.232L110.431,28.232c-0.592-1.436-1.618-2.367-3.202-2.917c-1.645-0.527-4.535-0.833-9.586-0.907
			c-5.052,0.074-7.942,0.38-9.586,0.907c-1.585,0.549-2.612,1.48-3.202,2.917c-0.469,1.101-1.003,3.781-1.003,7.646
			s0.534,6.545,1.003,7.646c0.59,1.436,1.618,2.366,3.202,2.917c1.644,0.528,4.534,0.833,9.586,0.906
			c5.051-0.073,7.941-0.378,9.586-0.906c1.585-0.551,2.61-1.481,3.202-2.917c0.472-1.101,1.003-3.782,1.003-7.646
			S110.902,29.333,110.431,28.232L110.431,28.232z"/>
		<path id="XMLID_3091_" fill="#EC1C24" d="M239.155,35.878c0,3.954-0.463,7.208-1.379,9.641c-0.926,2.533-4.09,8.25-19.448,8.25
			c-15.359,0-18.524-5.717-19.449-8.25c-0.915-2.432-1.378-5.686-1.378-9.641c0-3.956,0.463-7.207,1.378-9.641
			c0.925-2.534,4.089-8.249,19.449-8.249c15.358,0,18.523,5.715,19.448,8.249C238.692,28.671,239.155,31.922,239.155,35.878
			L239.155,35.878z M231.116,28.232L231.116,28.232c-0.592-1.436-1.618-2.367-3.202-2.917c-1.645-0.527-4.536-0.833-9.586-0.907
			c-5.052,0.074-7.942,0.38-9.587,0.907c-1.585,0.549-2.612,1.48-3.201,2.917c-0.472,1.101-1.003,3.781-1.003,7.646
			s0.532,6.545,1.003,7.646c0.589,1.436,1.616,2.366,3.201,2.917c1.644,0.528,4.534,0.833,9.587,0.906
			c5.05-0.073,7.941-0.378,9.586-0.906c1.584-0.551,2.61-1.481,3.202-2.917c0.47-1.101,1.003-3.782,1.003-7.646
			S231.586,29.333,231.116,28.232L231.116,28.232z"/>
		<path id="XMLID_3076_" fill="#FFFFFF" d="M43.056,19.573l-0.003,0.001v-0.001H43.056L43.056,19.573z M43.051,19.575L43.051,19.575
			h0.003v-0.001L43.051,19.575L43.051,19.575z M71.722,26.991L71.722,26.991c-0.402-1.716-1.131-3.16-2.223-4.412l-0.009-0.01
			c-1.494-1.66-3.399-2.762-5.825-3.372c-2.242-0.588-5.478-0.875-10.022-0.875c-4.955,0-8.32,0.397-10.588,1.25l-0.001,0.002
			l-0.009,0.002c-1.873,0.677-3.431,1.932-4.579,3.651c-1.338-1.801-3.004-3.035-5.073-3.73c-2.351-0.792-6.72-1.175-12.235-1.175
			c-4.14,0-6.983,0.293-8.693,0.897l-0.017,0.006c-1.289,0.486-2.522,1.308-3.735,2.478c0-1.042,0-1.705,0-1.705H2.342v33.27h6.351
			V32.137c0-5.516,5.608-7.695,11.276-7.695h2.841c5.667,0,11.333,2.179,11.333,7.695v21.132h6.348V32.137
			c0-5.516,5.544-7.695,11.21-7.695h2.843c5.666,0,11.348,2.179,11.348,7.695v21.132h6.345V35.124
			C72.237,31.003,72.078,28.495,71.722,26.991L71.722,26.991z"/>
		<path id="XMLID_2999_" fill="#EC1C24" d="M324.284,38.309h3.253c0.042-0.779,0.068-1.586,0.068-2.431
			c0-3.956-0.46-7.207-1.377-9.641c-0.926-2.534-4.09-8.249-19.447-8.249c-15.359,0-18.524,5.715-19.449,8.249
			c-0.915,2.434-1.379,5.685-1.379,9.641c0,3.954,0.463,7.208,1.379,9.641c0.926,2.533,4.091,8.25,19.449,8.25
			c15.358,0,18.521-5.717,19.447-8.25c0.081-0.22,0.158-0.455,0.234-0.687h-7.67c-0.594,0.722-1.387,1.249-2.425,1.61
			c-1.647,0.528-4.536,0.833-9.585,0.906c-5.052-0.073-7.944-0.378-9.587-0.906c-1.585-0.551-2.611-1.481-3.202-2.917
			c-0.363-0.848-0.761-2.635-0.924-5.178h31.217V38.309L324.284,38.309z M297.194,25.315L297.194,25.315
			c1.643-0.527,4.534-0.833,9.587-0.907c5.05,0.074,7.938,0.38,9.585,0.907c1.583,0.549,2.61,1.48,3.202,2.917
			c0.308,0.72,0.64,2.123,0.837,4.088h-27.25c0.194-1.965,0.529-3.368,0.837-4.088C294.583,26.796,295.609,25.865,297.194,25.315
			L297.194,25.315z"/>
		<polygon id="XMLID_2998_" fill="#FFFFFF" points="167.568,18.279 167.568,53.269 173.928,53.269 173.928,18.279 167.568,18.279 		
			"/>
		<path id="XMLID_2958_" fill="#FFFFFF" d="M161.712,26.238c-0.925-2.534-4.089-8.249-19.448-8.249
			c-5.88,0-9.963,0.839-12.825,2.015V2.474h-6.351V53.36h6.351v-1.608c2.862,1.176,6.945,2.016,12.825,2.016
			c15.359,0,18.522-5.714,19.448-8.247c0.916-2.434,1.379-5.686,1.379-9.641C163.091,31.923,162.629,28.672,161.712,26.238
			L161.712,26.238z M155.052,43.525L155.052,43.525c-0.591,1.436-1.617,2.366-3.202,2.915c-1.646,0.529-4.535,0.833-9.586,0.906
			c-5.051-0.073-7.041-0.377-8.686-0.906c-1.584-0.549-2.612-1.48-3.202-2.915c-0.371-0.87-0.781-2.73-0.937-5.377v-4.54
			c0.156-2.646,0.566-4.506,0.937-5.376c0.59-1.436,1.618-2.367,3.202-2.917c1.644-0.527,3.635-0.833,8.686-0.906
			c5.051,0.073,7.94,0.38,9.586,0.906c1.585,0.55,2.611,1.48,3.202,2.917c0.471,1.101,1.003,3.781,1.003,7.646
			C156.056,39.745,155.523,42.424,155.052,43.525L155.052,43.525z"/>
	</g>
	<g id="XMLID_2735_">
		<g>
			<path id="XMLID_607_" fill="#F1B720" d="M4.35,66.233v9.342H2.342v-9.342H4.35z M4.421,70.841l3.606-4.607h2.631l-3.932,4.607
				l3.748,4.734H7.829L4.421,70.841z"/>
			<path id="XMLID_603_" fill="#F1B720" d="M20.34,66.233v1.666h-2.616c-0.58,0-0.99,0.027-1.244,0.084
				c-0.453,0.098-0.792,0.295-1.019,0.588c-0.226,0.295-0.368,0.799-0.424,1.527h5.303v1.666h-5.303
				c0.07,0.842,0.339,1.416,0.82,1.738c0.41,0.266,1.061,0.406,1.952,0.406h2.532v1.666h-2.616c-0.863,0-1.527-0.055-1.994-0.154
				c-0.721-0.154-1.287-0.447-1.725-0.896c-0.834-0.854-1.244-2.086-1.244-3.67c0-1.693,0.537-2.982,1.598-3.865
				c0.608-0.504,1.471-0.756,2.588-0.756H20.34z M16.988,64.538l-0.877,0.994h-1.429l1.528-1.723h1.555l1.542,1.723h-1.428
				L16.988,64.538z M21.754,62.548l-1.768,1.725h-1.244l1.301-1.725H21.754z"/>
			<path id="XMLID_601_" fill="#F1B720" d="M26.726,67.899h-3.013v-1.666h8.132v1.666h-3.111v7.676h-2.008V67.899z"/>
			<path id="XMLID_599_" fill="#F1B720" d="M41.172,68.726v6.85h-1.909v-9.342h2.56l3.762,6.961v-6.961h1.909v9.342h-2.461
				L41.172,68.726z"/>
			<path id="XMLID_594_" fill="#F1B720" d="M58.575,67.409c0.707,0.799,1.06,2.004,1.06,3.629c0,3.066-1.499,4.594-4.511,4.594
				c-3.196,0-4.794-1.555-4.794-4.678c0-3.236,1.471-4.791,4.653-4.791C56.623,66.163,57.825,66.583,58.575,67.409z M52.975,68.685
				c-0.297,0.461-0.439,1.189-0.439,2.199c0,0.994,0.156,1.736,0.481,2.24c0.396,0.631,1.06,0.939,1.98,0.939
				c1.626,0,2.432-1.051,2.432-3.152c0-0.98-0.155-1.723-0.467-2.227c-0.382-0.631-1.046-0.939-1.966-0.939
				C54.049,67.745,53.371,68.054,52.975,68.685z M55.011,64.538l-0.877,0.994h-1.429l1.528-1.723h1.555l1.542,1.723h-1.428
				L55.011,64.538z M59.777,62.548l-1.768,1.725h-1.244l1.301-1.725H59.777z"/>
			<path id="XMLID_592_" fill="#F1B720" d="M62.232,75.575v-9.342h2.008v9.342H62.232z"/>
			<path id="XMLID_590_" fill="#F1B720" d="M76,70.028h4.639v5.547h-4.215c-1.315,0-2.277-0.238-2.899-0.729
				c-0.99-0.77-1.485-2.072-1.485-3.908c0-1.834,0.495-3.137,1.471-3.908c0.665-0.531,1.669-0.797,2.998-0.797h4.13v1.666H76.75
				c-0.948,0-1.612,0.252-1.994,0.742c-0.339,0.434-0.509,1.148-0.509,2.115c0,1.246,0.226,2.115,0.679,2.592
				c0.353,0.379,0.99,0.561,1.895,0.561h1.81v-2.213H76V70.028z"/>
			<path id="XMLID_588_" fill="#F1B720" d="M83.759,75.575v-9.342h2.008v9.342H83.759z"/>
			<path id="XMLID_584_" fill="#F1B720" d="M88.211,75.575l3.903-9.342h2.306l3.903,9.342h-2.348l-0.905-2.17h-3.592l-0.905,2.17
				H88.211z M93.274,68.474l-1.343,3.264h2.687L93.274,68.474z M95.594,63.528l-1.768,1.725h-1.245l1.301-1.725H95.594z"/>
			<path id="XMLID_582_" fill="#F1B720" d="M107.846,67.899h-3.013v-1.666h8.132v1.666h-3.112v7.676h-2.008V67.899z"/>
			<path id="XMLID_579_" fill="#F1B720" d="M117.429,72.032v3.543h-2.008v-9.342h4.61c1.343,0,2.291,0.182,2.828,0.545
				c0.693,0.477,1.047,1.164,1.047,2.061c0,1.414-0.594,2.324-1.796,2.73c1.061,0.281,1.626,1.148,1.711,2.592
				c0.042,0.631,0.113,1.105,0.226,1.414H121.8c-0.057-0.154-0.127-0.602-0.198-1.33c-0.085-0.855-0.311-1.443-0.693-1.752
				c-0.368-0.307-0.99-0.461-1.867-0.461H117.429z M117.429,70.364h2.814c0.976,0,1.442-0.336,1.442-1.289
				c0-0.588-0.226-0.951-0.693-1.105c-0.141-0.043-0.396-0.07-0.75-0.07h-2.814V70.364z"/>
			<path id="XMLID_576_" fill="#F1B720" d="M126.955,75.575v-9.342h2.008v9.342H126.955z M128.737,76.374v1.4h-1.428v-1.4H128.737z"
				/>
			<path id="XMLID_574_" fill="#F1B720" d="M144.568,71.122v1.68h-3.295v-1.68H144.568z"/>
			<path id="XMLID_571_" fill="#F1B720" d="M158.887,66.233v9.342h-2.008v-9.342H158.887z M158.958,70.841l3.606-4.607h2.631
				l-3.932,4.607l3.748,4.734h-2.644L158.958,70.841z"/>
			<path id="XMLID_569_" fill="#F1B720" d="M175.273,66.233v9.342h-2.008v-3.852h-3.635v3.852h-2.008v-9.342h2.008v3.824h3.635
				v-3.824H175.273z"/>
			<path id="XMLID_566_" fill="#F1B720" d="M187.429,65.224v1.303l-0.948,1.037l0.028,0.041c0.608,0.896,0.905,2.047,0.905,3.434
				c0,3.066-1.499,4.594-4.511,4.594c-3.196,0-4.794-1.555-4.794-4.678c0-3.236,1.471-4.791,4.653-4.791
				c1.442,0,2.56,0.336,3.352,1.021l0.453-0.504h-0.226v-1.457H187.429z M180.754,68.685c-0.297,0.461-0.439,1.189-0.439,2.199
				c0,0.994,0.156,1.736,0.481,2.24c0.396,0.631,1.06,0.939,1.98,0.939c1.626,0,2.432-1.051,2.432-3.152
				c0-0.98-0.155-1.723-0.467-2.227c-0.382-0.631-1.046-0.939-1.966-0.939C181.829,67.745,181.15,68.054,180.754,68.685z"/>
			<path id="XMLID_564_" fill="#F1B720" d="M190.011,75.575v-9.342h2.008v9.342H190.011z"/>
			<path id="XMLID_561_" fill="#F1B720" d="M200.33,66.233h4.002c1.825,0,3.083,0.434,3.791,1.287
				c0.311,0.379,0.551,0.926,0.721,1.625c0.141,0.59,0.212,1.178,0.212,1.779c0,0.883-0.127,1.709-0.396,2.48
				c-0.382,1.105-1.16,1.793-2.32,2.045c-0.382,0.084-1.061,0.125-2.008,0.125h-4.002V66.233z M202.338,67.899v6.01h1.994
				c0.905,0,1.528-0.211,1.867-0.617c0.438-0.531,0.651-1.33,0.651-2.381c0-1.246-0.283-2.102-0.863-2.578
				c-0.353-0.293-0.905-0.434-1.655-0.434H202.338z"/>
			<path id="XMLID_556_" fill="#F1B720" d="M210.987,75.575l3.904-9.342h2.305l3.904,9.342h-2.348l-0.905-2.17h-3.592l-0.905,2.17
				H210.987z M216.064,64.538l-0.877,0.994h-1.429l1.528-1.723h1.555l1.542,1.723h-1.429L216.064,64.538z M216.05,68.474
				l-1.343,3.264h2.687L216.05,68.474z M216.785,76.374v1.4h-1.428v-1.4H216.785z"/>
			<path id="XMLID_554_" fill="#F1B720" d="M226.113,71.485l-3.493-5.252h2.362l2.163,3.641l2.278-3.641h2.375l-3.677,5.322v4.02
				h-2.008V71.485z"/>
			<path id="XMLID_552_" fill="#F1B720" d="M241.294,67.899h-3.013v-1.666h8.132v1.666h-3.112v7.676h-2.007V67.899z"/>
			<path id="XMLID_550_" fill="#F1B720" d="M248.869,75.575v-9.342h2.007v9.342H248.869z"/>
			<path id="XMLID_546_" fill="#F1B720" d="M261.481,66.233v1.666h-2.616c-0.58,0-0.99,0.027-1.244,0.084
				c-0.453,0.098-0.793,0.295-1.019,0.588c-0.227,0.295-0.368,0.799-0.424,1.527h5.303v1.666h-5.303
				c0.07,0.842,0.339,1.416,0.819,1.738c0.41,0.266,1.061,0.406,1.952,0.406h2.531v1.666h-2.616c-0.863,0-1.527-0.055-1.995-0.154
				c-0.721-0.154-1.287-0.447-1.725-0.896c-0.834-0.854-1.244-2.086-1.244-3.67c0-1.693,0.537-2.982,1.598-3.865
				c0.608-0.504,1.471-0.756,2.588-0.756H261.481z M258.129,64.538l-0.877,0.994h-1.429l1.527-1.723h1.556l1.541,1.723h-1.428
				L258.129,64.538z M258.328,62.548l1.768,1.725h1.244l-1.302-1.725H258.328z"/>
			<path id="XMLID_544_" fill="#F1B720" d="M268.659,66.233l2.348,7.297l2.476-7.297h2.927v9.342h-1.91v-7.018l-2.475,7.018h-2.065
				l-2.334-7.018v7.018h-1.909v-9.342H268.659z"/>
			<path id="XMLID_542_" fill="#F1B720" d="M286.624,68.726v6.85h-1.909v-9.342h2.56l3.762,6.961v-6.961h1.91v9.342h-2.461
				L286.624,68.726z"/>
			<path id="XMLID_538_" fill="#F1B720" d="M295.387,75.575l3.903-9.342h2.306l3.902,9.342h-2.348l-0.905-2.17h-3.592l-0.905,2.17
				H295.387z M302.514,63.935c-0.156,1.135-0.834,1.709-2.065,1.709c-1.259,0-1.924-0.574-2.008-1.709h0.721
				c0.127,0.59,0.58,0.883,1.358,0.883c0.679,0,1.103-0.293,1.273-0.883H302.514z M300.45,68.474l-1.344,3.264h2.687L300.45,68.474z
				"/>
			<path id="XMLID_536_" fill="#F1B720" d="M309.848,68.726v6.85h-1.91v-9.342h2.56l3.763,6.961v-6.961h1.909v9.342h-2.461
				L309.848,68.726z"/>
			<path id="XMLID_534_" fill="#F1B720" d="M322.966,70.028h4.639v5.547h-4.215c-1.315,0-2.277-0.238-2.899-0.729
				c-0.99-0.77-1.485-2.072-1.485-3.908c0-1.834,0.495-3.137,1.47-3.908c0.666-0.531,1.669-0.797,2.998-0.797h4.13v1.666h-3.89
				c-0.948,0-1.612,0.252-1.994,0.742c-0.34,0.434-0.51,1.148-0.51,2.115c0,1.246,0.227,2.115,0.679,2.592
				c0.353,0.379,0.99,0.561,1.895,0.561h1.81v-2.213h-2.631V70.028z"/>
		</g>
	</g>
</g>
</svg>
